<mxfile host="app.diagrams.net" agent="Mozilla/5.0 (Windows NT 10.0; Win64; x64) AppleWebKit/537.36 (KHTML, like Gecko) Chrome/129.0.0.0 Safari/537.36" version="24.7.17">
  <diagram id="C5RBs43oDa-KdzZeNtuy" name="Page-1">
    <mxGraphModel dx="1877" dy="563" grid="1" gridSize="10" guides="1" tooltips="1" connect="1" arrows="1" fold="1" page="1" pageScale="1" pageWidth="827" pageHeight="1169" math="0" shadow="0">
      <root>
        <mxCell id="WIyWlLk6GJQsqaUBKTNV-0" />
        <mxCell id="WIyWlLk6GJQsqaUBKTNV-1" parent="WIyWlLk6GJQsqaUBKTNV-0" />
        <mxCell id="zkfFHV4jXpPFQw0GAbJ--0" value="Client" style="swimlane;fontStyle=2;align=center;verticalAlign=top;childLayout=stackLayout;horizontal=1;startSize=26;horizontalStack=0;resizeParent=1;resizeLast=0;collapsible=1;marginBottom=0;rounded=0;shadow=0;strokeWidth=1;" parent="WIyWlLk6GJQsqaUBKTNV-1" vertex="1">
          <mxGeometry x="160" y="120" width="170" height="242" as="geometry">
            <mxRectangle x="230" y="140" width="160" height="26" as="alternateBounds" />
          </mxGeometry>
        </mxCell>
        <mxCell id="zkfFHV4jXpPFQw0GAbJ--1" value="- clientID: String" style="text;align=left;verticalAlign=top;spacingLeft=4;spacingRight=4;overflow=hidden;rotatable=0;points=[[0,0.5],[1,0.5]];portConstraint=eastwest;" parent="zkfFHV4jXpPFQw0GAbJ--0" vertex="1">
          <mxGeometry y="26" width="170" height="26" as="geometry" />
        </mxCell>
        <mxCell id="zkfFHV4jXpPFQw0GAbJ--2" value="- name: String" style="text;align=left;verticalAlign=top;spacingLeft=4;spacingRight=4;overflow=hidden;rotatable=0;points=[[0,0.5],[1,0.5]];portConstraint=eastwest;rounded=0;shadow=0;html=0;" parent="zkfFHV4jXpPFQw0GAbJ--0" vertex="1">
          <mxGeometry y="52" width="170" height="26" as="geometry" />
        </mxCell>
        <mxCell id="zkfFHV4jXpPFQw0GAbJ--3" value="- contactInfo: String" style="text;align=left;verticalAlign=top;spacingLeft=4;spacingRight=4;overflow=hidden;rotatable=0;points=[[0,0.5],[1,0.5]];portConstraint=eastwest;rounded=0;shadow=0;html=0;" parent="zkfFHV4jXpPFQw0GAbJ--0" vertex="1">
          <mxGeometry y="78" width="170" height="26" as="geometry" />
        </mxCell>
        <mxCell id="dlhCBF4bfs9_KUVGagDZ-2" value="- segment: String" style="text;align=left;verticalAlign=top;spacingLeft=4;spacingRight=4;overflow=hidden;rotatable=0;points=[[0,0.5],[1,0.5]];portConstraint=eastwest;rounded=0;shadow=0;html=0;" vertex="1" parent="zkfFHV4jXpPFQw0GAbJ--0">
          <mxGeometry y="104" width="170" height="26" as="geometry" />
        </mxCell>
        <mxCell id="dlhCBF4bfs9_KUVGagDZ-1" value="- isKeyClient: Boolean" style="text;align=left;verticalAlign=top;spacingLeft=4;spacingRight=4;overflow=hidden;rotatable=0;points=[[0,0.5],[1,0.5]];portConstraint=eastwest;rounded=0;shadow=0;html=0;" vertex="1" parent="zkfFHV4jXpPFQw0GAbJ--0">
          <mxGeometry y="130" width="170" height="26" as="geometry" />
        </mxCell>
        <mxCell id="zkfFHV4jXpPFQw0GAbJ--4" value="" style="line;html=1;strokeWidth=1;align=left;verticalAlign=middle;spacingTop=-1;spacingLeft=3;spacingRight=3;rotatable=0;labelPosition=right;points=[];portConstraint=eastwest;" parent="zkfFHV4jXpPFQw0GAbJ--0" vertex="1">
          <mxGeometry y="156" width="170" height="8" as="geometry" />
        </mxCell>
        <mxCell id="zkfFHV4jXpPFQw0GAbJ--5" value="+ updateProfile(): void" style="text;align=left;verticalAlign=top;spacingLeft=4;spacingRight=4;overflow=hidden;rotatable=0;points=[[0,0.5],[1,0.5]];portConstraint=eastwest;" parent="zkfFHV4jXpPFQw0GAbJ--0" vertex="1">
          <mxGeometry y="164" width="170" height="26" as="geometry" />
        </mxCell>
        <mxCell id="dlhCBF4bfs9_KUVGagDZ-3" value="+ addNote(note: String): void" style="text;align=left;verticalAlign=top;spacingLeft=4;spacingRight=4;overflow=hidden;rotatable=0;points=[[0,0.5],[1,0.5]];portConstraint=eastwest;" vertex="1" parent="zkfFHV4jXpPFQw0GAbJ--0">
          <mxGeometry y="190" width="170" height="26" as="geometry" />
        </mxCell>
        <mxCell id="dlhCBF4bfs9_KUVGagDZ-0" value="+ flagForFollowUp(): void" style="text;align=left;verticalAlign=top;spacingLeft=4;spacingRight=4;overflow=hidden;rotatable=0;points=[[0,0.5],[1,0.5]];portConstraint=eastwest;" vertex="1" parent="zkfFHV4jXpPFQw0GAbJ--0">
          <mxGeometry y="216" width="170" height="26" as="geometry" />
        </mxCell>
        <mxCell id="dlhCBF4bfs9_KUVGagDZ-4" value="ServiceAgreement" style="swimlane;fontStyle=2;align=center;verticalAlign=top;childLayout=stackLayout;horizontal=1;startSize=26;horizontalStack=0;resizeParent=1;resizeLast=0;collapsible=1;marginBottom=0;rounded=0;shadow=0;strokeWidth=1;" vertex="1" parent="WIyWlLk6GJQsqaUBKTNV-1">
          <mxGeometry x="440" y="120" width="290" height="270" as="geometry">
            <mxRectangle x="230" y="140" width="160" height="26" as="alternateBounds" />
          </mxGeometry>
        </mxCell>
        <mxCell id="dlhCBF4bfs9_KUVGagDZ-5" value="- agreementID: String" style="text;align=left;verticalAlign=top;spacingLeft=4;spacingRight=4;overflow=hidden;rotatable=0;points=[[0,0.5],[1,0.5]];portConstraint=eastwest;" vertex="1" parent="dlhCBF4bfs9_KUVGagDZ-4">
          <mxGeometry y="26" width="290" height="26" as="geometry" />
        </mxCell>
        <mxCell id="dlhCBF4bfs9_KUVGagDZ-6" value="- clientID: String " style="text;align=left;verticalAlign=top;spacingLeft=4;spacingRight=4;overflow=hidden;rotatable=0;points=[[0,0.5],[1,0.5]];portConstraint=eastwest;rounded=0;shadow=0;html=0;" vertex="1" parent="dlhCBF4bfs9_KUVGagDZ-4">
          <mxGeometry y="52" width="290" height="26" as="geometry" />
        </mxCell>
        <mxCell id="dlhCBF4bfs9_KUVGagDZ-7" value="- details: String" style="text;align=left;verticalAlign=top;spacingLeft=4;spacingRight=4;overflow=hidden;rotatable=0;points=[[0,0.5],[1,0.5]];portConstraint=eastwest;rounded=0;shadow=0;html=0;" vertex="1" parent="dlhCBF4bfs9_KUVGagDZ-4">
          <mxGeometry y="78" width="290" height="26" as="geometry" />
        </mxCell>
        <mxCell id="dlhCBF4bfs9_KUVGagDZ-8" value="- startDate: Date" style="text;align=left;verticalAlign=top;spacingLeft=4;spacingRight=4;overflow=hidden;rotatable=0;points=[[0,0.5],[1,0.5]];portConstraint=eastwest;rounded=0;shadow=0;html=0;" vertex="1" parent="dlhCBF4bfs9_KUVGagDZ-4">
          <mxGeometry y="104" width="290" height="26" as="geometry" />
        </mxCell>
        <mxCell id="dlhCBF4bfs9_KUVGagDZ-15" value="- endDate: Date" style="text;align=left;verticalAlign=top;spacingLeft=4;spacingRight=4;overflow=hidden;rotatable=0;points=[[0,0.5],[1,0.5]];portConstraint=eastwest;rounded=0;shadow=0;html=0;" vertex="1" parent="dlhCBF4bfs9_KUVGagDZ-4">
          <mxGeometry y="130" width="290" height="26" as="geometry" />
        </mxCell>
        <mxCell id="dlhCBF4bfs9_KUVGagDZ-9" value="- status: String" style="text;align=left;verticalAlign=top;spacingLeft=4;spacingRight=4;overflow=hidden;rotatable=0;points=[[0,0.5],[1,0.5]];portConstraint=eastwest;rounded=0;shadow=0;html=0;" vertex="1" parent="dlhCBF4bfs9_KUVGagDZ-4">
          <mxGeometry y="156" width="290" height="26" as="geometry" />
        </mxCell>
        <mxCell id="dlhCBF4bfs9_KUVGagDZ-10" value="" style="line;html=1;strokeWidth=1;align=left;verticalAlign=middle;spacingTop=-1;spacingLeft=3;spacingRight=3;rotatable=0;labelPosition=right;points=[];portConstraint=eastwest;" vertex="1" parent="dlhCBF4bfs9_KUVGagDZ-4">
          <mxGeometry y="182" width="290" height="8" as="geometry" />
        </mxCell>
        <mxCell id="dlhCBF4bfs9_KUVGagDZ-11" value="+ updateStatus(newStatus: String): void" style="text;align=left;verticalAlign=top;spacingLeft=4;spacingRight=4;overflow=hidden;rotatable=0;points=[[0,0.5],[1,0.5]];portConstraint=eastwest;" vertex="1" parent="dlhCBF4bfs9_KUVGagDZ-4">
          <mxGeometry y="190" width="290" height="26" as="geometry" />
        </mxCell>
        <mxCell id="dlhCBF4bfs9_KUVGagDZ-12" value="+ captureAgreement(details: String, startDate: Date,Â &#xa;endDate: Date): void" style="text;align=left;verticalAlign=top;spacingLeft=4;spacingRight=4;overflow=hidden;rotatable=0;points=[[0,0.5],[1,0.5]];portConstraint=eastwest;" vertex="1" parent="dlhCBF4bfs9_KUVGagDZ-4">
          <mxGeometry y="216" width="290" height="54" as="geometry" />
        </mxCell>
        <mxCell id="dlhCBF4bfs9_KUVGagDZ-17" value="Contract" style="swimlane;fontStyle=2;align=center;verticalAlign=top;childLayout=stackLayout;horizontal=1;startSize=26;horizontalStack=0;resizeParent=1;resizeLast=0;collapsible=1;marginBottom=0;rounded=0;shadow=0;strokeWidth=1;" vertex="1" parent="WIyWlLk6GJQsqaUBKTNV-1">
          <mxGeometry x="160" y="380" width="220" height="220" as="geometry">
            <mxRectangle x="230" y="140" width="160" height="26" as="alternateBounds" />
          </mxGeometry>
        </mxCell>
        <mxCell id="dlhCBF4bfs9_KUVGagDZ-18" value="- contractID: String" style="text;align=left;verticalAlign=top;spacingLeft=4;spacingRight=4;overflow=hidden;rotatable=0;points=[[0,0.5],[1,0.5]];portConstraint=eastwest;" vertex="1" parent="dlhCBF4bfs9_KUVGagDZ-17">
          <mxGeometry y="26" width="220" height="26" as="geometry" />
        </mxCell>
        <mxCell id="dlhCBF4bfs9_KUVGagDZ-19" value="- clientID: String " style="text;align=left;verticalAlign=top;spacingLeft=4;spacingRight=4;overflow=hidden;rotatable=0;points=[[0,0.5],[1,0.5]];portConstraint=eastwest;rounded=0;shadow=0;html=0;" vertex="1" parent="dlhCBF4bfs9_KUVGagDZ-17">
          <mxGeometry y="52" width="220" height="26" as="geometry" />
        </mxCell>
        <mxCell id="dlhCBF4bfs9_KUVGagDZ-20" value="- serviceAgreementID: String" style="text;align=left;verticalAlign=top;spacingLeft=4;spacingRight=4;overflow=hidden;rotatable=0;points=[[0,0.5],[1,0.5]];portConstraint=eastwest;rounded=0;shadow=0;html=0;" vertex="1" parent="dlhCBF4bfs9_KUVGagDZ-17">
          <mxGeometry y="78" width="220" height="26" as="geometry" />
        </mxCell>
        <mxCell id="dlhCBF4bfs9_KUVGagDZ-21" value="- status: String" style="text;align=left;verticalAlign=top;spacingLeft=4;spacingRight=4;overflow=hidden;rotatable=0;points=[[0,0.5],[1,0.5]];portConstraint=eastwest;rounded=0;shadow=0;html=0;" vertex="1" parent="dlhCBF4bfs9_KUVGagDZ-17">
          <mxGeometry y="104" width="220" height="26" as="geometry" />
        </mxCell>
        <mxCell id="dlhCBF4bfs9_KUVGagDZ-22" value="- lastUpdated: Date" style="text;align=left;verticalAlign=top;spacingLeft=4;spacingRight=4;overflow=hidden;rotatable=0;points=[[0,0.5],[1,0.5]];portConstraint=eastwest;rounded=0;shadow=0;html=0;" vertex="1" parent="dlhCBF4bfs9_KUVGagDZ-17">
          <mxGeometry y="130" width="220" height="26" as="geometry" />
        </mxCell>
        <mxCell id="dlhCBF4bfs9_KUVGagDZ-24" value="" style="line;html=1;strokeWidth=1;align=left;verticalAlign=middle;spacingTop=-1;spacingLeft=3;spacingRight=3;rotatable=0;labelPosition=right;points=[];portConstraint=eastwest;" vertex="1" parent="dlhCBF4bfs9_KUVGagDZ-17">
          <mxGeometry y="156" width="220" height="8" as="geometry" />
        </mxCell>
        <mxCell id="dlhCBF4bfs9_KUVGagDZ-25" value="+ trackStatus(): String" style="text;align=left;verticalAlign=top;spacingLeft=4;spacingRight=4;overflow=hidden;rotatable=0;points=[[0,0.5],[1,0.5]];portConstraint=eastwest;" vertex="1" parent="dlhCBF4bfs9_KUVGagDZ-17">
          <mxGeometry y="164" width="220" height="26" as="geometry" />
        </mxCell>
        <mxCell id="dlhCBF4bfs9_KUVGagDZ-26" value="+ updateContract(details: String): void" style="text;align=left;verticalAlign=top;spacingLeft=4;spacingRight=4;overflow=hidden;rotatable=0;points=[[0,0.5],[1,0.5]];portConstraint=eastwest;" vertex="1" parent="dlhCBF4bfs9_KUVGagDZ-17">
          <mxGeometry y="190" width="220" height="26" as="geometry" />
        </mxCell>
        <mxCell id="dlhCBF4bfs9_KUVGagDZ-29" value="CRMIntegration" style="swimlane;fontStyle=2;align=center;verticalAlign=top;childLayout=stackLayout;horizontal=1;startSize=26;horizontalStack=0;resizeParent=1;resizeLast=0;collapsible=1;marginBottom=0;rounded=0;shadow=0;strokeWidth=1;" vertex="1" parent="WIyWlLk6GJQsqaUBKTNV-1">
          <mxGeometry x="440" y="405" width="240" height="170" as="geometry">
            <mxRectangle x="230" y="140" width="160" height="26" as="alternateBounds" />
          </mxGeometry>
        </mxCell>
        <mxCell id="dlhCBF4bfs9_KUVGagDZ-30" value="- integrationID: String" style="text;align=left;verticalAlign=top;spacingLeft=4;spacingRight=4;overflow=hidden;rotatable=0;points=[[0,0.5],[1,0.5]];portConstraint=eastwest;" vertex="1" parent="dlhCBF4bfs9_KUVGagDZ-29">
          <mxGeometry y="26" width="240" height="26" as="geometry" />
        </mxCell>
        <mxCell id="dlhCBF4bfs9_KUVGagDZ-31" value="- crmSystemName: String " style="text;align=left;verticalAlign=top;spacingLeft=4;spacingRight=4;overflow=hidden;rotatable=0;points=[[0,0.5],[1,0.5]];portConstraint=eastwest;rounded=0;shadow=0;html=0;" vertex="1" parent="dlhCBF4bfs9_KUVGagDZ-29">
          <mxGeometry y="52" width="240" height="26" as="geometry" />
        </mxCell>
        <mxCell id="dlhCBF4bfs9_KUVGagDZ-32" value="- apiEndpoint: String" style="text;align=left;verticalAlign=top;spacingLeft=4;spacingRight=4;overflow=hidden;rotatable=0;points=[[0,0.5],[1,0.5]];portConstraint=eastwest;rounded=0;shadow=0;html=0;" vertex="1" parent="dlhCBF4bfs9_KUVGagDZ-29">
          <mxGeometry y="78" width="240" height="26" as="geometry" />
        </mxCell>
        <mxCell id="dlhCBF4bfs9_KUVGagDZ-36" value="" style="line;html=1;strokeWidth=1;align=left;verticalAlign=middle;spacingTop=-1;spacingLeft=3;spacingRight=3;rotatable=0;labelPosition=right;points=[];portConstraint=eastwest;" vertex="1" parent="dlhCBF4bfs9_KUVGagDZ-29">
          <mxGeometry y="104" width="240" height="8" as="geometry" />
        </mxCell>
        <mxCell id="dlhCBF4bfs9_KUVGagDZ-37" value="+ syncClientData(): void" style="text;align=left;verticalAlign=top;spacingLeft=4;spacingRight=4;overflow=hidden;rotatable=0;points=[[0,0.5],[1,0.5]];portConstraint=eastwest;" vertex="1" parent="dlhCBF4bfs9_KUVGagDZ-29">
          <mxGeometry y="112" width="240" height="26" as="geometry" />
        </mxCell>
        <mxCell id="dlhCBF4bfs9_KUVGagDZ-38" value="+ fetchEnrichedProfiles(): ClientProfileData" style="text;align=left;verticalAlign=top;spacingLeft=4;spacingRight=4;overflow=hidden;rotatable=0;points=[[0,0.5],[1,0.5]];portConstraint=eastwest;" vertex="1" parent="dlhCBF4bfs9_KUVGagDZ-29">
          <mxGeometry y="138" width="240" height="26" as="geometry" />
        </mxCell>
        <mxCell id="dlhCBF4bfs9_KUVGagDZ-42" value=" RealTimeUpdater" style="swimlane;fontStyle=2;align=center;verticalAlign=top;childLayout=stackLayout;horizontal=1;startSize=26;horizontalStack=0;resizeParent=1;resizeLast=0;collapsible=1;marginBottom=0;rounded=0;shadow=0;strokeWidth=1;" vertex="1" parent="WIyWlLk6GJQsqaUBKTNV-1">
          <mxGeometry x="160" y="620" width="260" height="140" as="geometry">
            <mxRectangle x="230" y="140" width="160" height="26" as="alternateBounds" />
          </mxGeometry>
        </mxCell>
        <mxCell id="dlhCBF4bfs9_KUVGagDZ-43" value="- updateID: String" style="text;align=left;verticalAlign=top;spacingLeft=4;spacingRight=4;overflow=hidden;rotatable=0;points=[[0,0.5],[1,0.5]];portConstraint=eastwest;" vertex="1" parent="dlhCBF4bfs9_KUVGagDZ-42">
          <mxGeometry y="26" width="260" height="26" as="geometry" />
        </mxCell>
        <mxCell id="dlhCBF4bfs9_KUVGagDZ-44" value="- timestamp: Date " style="text;align=left;verticalAlign=top;spacingLeft=4;spacingRight=4;overflow=hidden;rotatable=0;points=[[0,0.5],[1,0.5]];portConstraint=eastwest;rounded=0;shadow=0;html=0;" vertex="1" parent="dlhCBF4bfs9_KUVGagDZ-42">
          <mxGeometry y="52" width="260" height="26" as="geometry" />
        </mxCell>
        <mxCell id="dlhCBF4bfs9_KUVGagDZ-46" value="" style="line;html=1;strokeWidth=1;align=left;verticalAlign=middle;spacingTop=-1;spacingLeft=3;spacingRight=3;rotatable=0;labelPosition=right;points=[];portConstraint=eastwest;" vertex="1" parent="dlhCBF4bfs9_KUVGagDZ-42">
          <mxGeometry y="78" width="260" height="8" as="geometry" />
        </mxCell>
        <mxCell id="dlhCBF4bfs9_KUVGagDZ-47" value="+ pushUpdate(updateData: UpdateData): void" style="text;align=left;verticalAlign=top;spacingLeft=4;spacingRight=4;overflow=hidden;rotatable=0;points=[[0,0.5],[1,0.5]];portConstraint=eastwest;" vertex="1" parent="dlhCBF4bfs9_KUVGagDZ-42">
          <mxGeometry y="86" width="260" height="26" as="geometry" />
        </mxCell>
        <mxCell id="dlhCBF4bfs9_KUVGagDZ-48" value="+ receiveUpdate(): UpdateData" style="text;align=left;verticalAlign=top;spacingLeft=4;spacingRight=4;overflow=hidden;rotatable=0;points=[[0,0.5],[1,0.5]];portConstraint=eastwest;" vertex="1" parent="dlhCBF4bfs9_KUVGagDZ-42">
          <mxGeometry y="112" width="260" height="26" as="geometry" />
        </mxCell>
        <mxCell id="dlhCBF4bfs9_KUVGagDZ-77" value="&lt;h1 style=&quot;margin-top: 0px;&quot;&gt;Client Class Description:&lt;/h1&gt;&lt;div&gt;&lt;p&gt;&lt;strong&gt;Attributes (Properties):&lt;/strong&gt;&lt;/p&gt;&lt;ul&gt;&lt;li&gt;&lt;p&gt;&lt;strong&gt;clientID: String&lt;/strong&gt;&lt;/p&gt;&lt;ul&gt;&lt;li&gt;&lt;strong&gt;Description:&lt;/strong&gt; A unique identifier for each client.&lt;/li&gt;&lt;li&gt;&lt;strong&gt;Usage:&lt;/strong&gt; Used to distinguish clients within the system and establish relationships with other entities like contracts and service agreements.&lt;/li&gt;&lt;/ul&gt;&lt;/li&gt;&lt;li&gt;&lt;p&gt;&lt;strong&gt;name: String&lt;/strong&gt;&lt;/p&gt;&lt;ul&gt;&lt;li&gt;&lt;strong&gt;Description:&lt;/strong&gt; The full name of the client (individual or business).&lt;/li&gt;&lt;li&gt;&lt;strong&gt;Usage:&lt;/strong&gt; Displays the client&#39;s name in interfaces and reports.&lt;/li&gt;&lt;/ul&gt;&lt;/li&gt;&lt;li&gt;&lt;p&gt;&lt;strong&gt;contactInfo: String&lt;/strong&gt;&lt;/p&gt;&lt;ul&gt;&lt;li&gt;&lt;strong&gt;Description:&lt;/strong&gt; Contains contact details such as phone number, email address, and mailing address.&lt;/li&gt;&lt;li&gt;&lt;strong&gt;Usage:&lt;/strong&gt; Enables communication with the client and is used for notifications and updates.&lt;/li&gt;&lt;/ul&gt;&lt;/li&gt;&lt;li&gt;&lt;p&gt;&lt;strong&gt;segment: String&lt;/strong&gt;&lt;/p&gt;&lt;ul&gt;&lt;li&gt;&lt;strong&gt;Description:&lt;/strong&gt; Categorizes the client into segments (e.g., VIP, Regular, Enterprise).&lt;/li&gt;&lt;li&gt;&lt;strong&gt;Usage:&lt;/strong&gt; Facilitates intelligent segmentation for targeted marketing and proactive engagement strategies.&lt;/li&gt;&lt;/ul&gt;&lt;/li&gt;&lt;li&gt;&lt;p&gt;&lt;strong&gt;isKeyClient: Boolean&lt;/strong&gt;&lt;/p&gt;&lt;ul&gt;&lt;li&gt;&lt;strong&gt;Description:&lt;/strong&gt; Indicates whether the client is a key client requiring special attention.&lt;/li&gt;&lt;li&gt;&lt;strong&gt;Usage:&lt;/strong&gt; Triggers specific workflows like follow-up notifications and priority support.&lt;/li&gt;&lt;/ul&gt;&lt;/li&gt;&lt;/ul&gt;&lt;p&gt;&lt;strong&gt;Methods (Operations):&lt;/strong&gt;&lt;/p&gt;&lt;ul&gt;&lt;li&gt;&lt;p&gt;&lt;strong&gt;updateProfile(): void&lt;/strong&gt;&lt;/p&gt;&lt;ul&gt;&lt;li&gt;&lt;strong&gt;Description:&lt;/strong&gt; Updates the client&#39;s profile information.&lt;/li&gt;&lt;li&gt;&lt;strong&gt;Usage:&lt;/strong&gt; Invoked when modifications to client details are needed, ensuring the latest information is maintained.&lt;/li&gt;&lt;/ul&gt;&lt;/li&gt;&lt;li&gt;&lt;p&gt;&lt;strong&gt;addNote(note: String): void&lt;/strong&gt;&lt;/p&gt;&lt;ul&gt;&lt;li&gt;&lt;strong&gt;Description:&lt;/strong&gt; Adds a textual note to the client&#39;s profile.&lt;/li&gt;&lt;li&gt;&lt;strong&gt;Usage:&lt;/strong&gt; Used by client managers to record important observations, interactions, or reminders related to the client.&lt;/li&gt;&lt;/ul&gt;&lt;/li&gt;&lt;li&gt;&lt;p&gt;&lt;strong&gt;flagForFollowUp(): void&lt;/strong&gt;&lt;/p&gt;&lt;ul&gt;&lt;li&gt;&lt;strong&gt;Description:&lt;/strong&gt; Flags the client for follow-up actions.&lt;/li&gt;&lt;li&gt;&lt;strong&gt;Usage:&lt;/strong&gt; Marks the client as needing further engagement, triggering notifications or tasks for client managers.&lt;/li&gt;&lt;/ul&gt;&lt;/li&gt;&lt;/ul&gt;&lt;/div&gt;" style="text;html=1;whiteSpace=wrap;overflow=hidden;rounded=0;" vertex="1" parent="WIyWlLk6GJQsqaUBKTNV-1">
          <mxGeometry x="-520" y="120" width="620" height="720" as="geometry" />
        </mxCell>
        <mxCell id="dlhCBF4bfs9_KUVGagDZ-78" value="&lt;h1 style=&quot;margin-top: 0px;&quot;&gt;ServiceAgreement Class Description:&lt;/h1&gt;&lt;div&gt;&lt;p&gt;&lt;strong&gt;Attributes (Properties):&lt;/strong&gt;&lt;/p&gt;&lt;ul&gt;&lt;li&gt;&lt;p&gt;&lt;strong&gt;agreementID: String&lt;/strong&gt;&lt;/p&gt;&lt;ul&gt;&lt;li&gt;&lt;strong&gt;Description:&lt;/strong&gt; A unique identifier for each service agreement.&lt;/li&gt;&lt;li&gt;&lt;strong&gt;Usage:&lt;/strong&gt; Used to track and reference specific agreements within the system.&lt;/li&gt;&lt;/ul&gt;&lt;/li&gt;&lt;li&gt;&lt;p&gt;&lt;strong&gt;clientID: String&lt;/strong&gt;&lt;/p&gt;&lt;ul&gt;&lt;li&gt;&lt;strong&gt;Description:&lt;/strong&gt; References the &lt;code&gt;clientID&lt;/code&gt; from the &lt;strong&gt;Client&lt;/strong&gt; class.&lt;/li&gt;&lt;li&gt;&lt;strong&gt;Usage:&lt;/strong&gt; Establishes a relationship between the service agreement and the associated client.&lt;/li&gt;&lt;/ul&gt;&lt;/li&gt;&lt;li&gt;&lt;p&gt;&lt;strong&gt;details: String&lt;/strong&gt;&lt;/p&gt;&lt;ul&gt;&lt;li&gt;&lt;strong&gt;Description:&lt;/strong&gt; Provides detailed information about the services, terms, and conditions of the agreement.&lt;/li&gt;&lt;li&gt;&lt;strong&gt;Usage:&lt;/strong&gt; Stores the content of the agreement for review and reference.&lt;/li&gt;&lt;/ul&gt;&lt;/li&gt;&lt;li&gt;&lt;p&gt;&lt;strong&gt;startDate: Date&lt;/strong&gt;&lt;/p&gt;&lt;ul&gt;&lt;li&gt;&lt;strong&gt;Description:&lt;/strong&gt; The commencement date of the service agreement.&lt;/li&gt;&lt;li&gt;&lt;strong&gt;Usage:&lt;/strong&gt; Used to calculate the duration of the agreement and trigger relevant workflows.&lt;/li&gt;&lt;/ul&gt;&lt;/li&gt;&lt;li&gt;&lt;p&gt;&lt;strong&gt;endDate: Date&lt;/strong&gt;&lt;/p&gt;&lt;ul&gt;&lt;li&gt;&lt;strong&gt;Description:&lt;/strong&gt; The termination date of the service agreement.&lt;/li&gt;&lt;li&gt;&lt;strong&gt;Usage:&lt;/strong&gt; Helps in managing contract renewals and expirations.&lt;/li&gt;&lt;/ul&gt;&lt;/li&gt;&lt;li&gt;&lt;p&gt;&lt;strong&gt;status: String&lt;/strong&gt;&lt;/p&gt;&lt;ul&gt;&lt;li&gt;&lt;strong&gt;Description:&lt;/strong&gt; Indicates the current status of the agreement (e.g., Active, Pending, Terminated).&lt;/li&gt;&lt;li&gt;&lt;strong&gt;Usage:&lt;/strong&gt; Tracks the lifecycle of the agreement and informs related processes.&lt;/li&gt;&lt;/ul&gt;&lt;/li&gt;&lt;/ul&gt;&lt;p&gt;&lt;strong&gt;Methods (Operations):&lt;/strong&gt;&lt;/p&gt;&lt;ul&gt;&lt;li&gt;&lt;p&gt;&lt;strong&gt;updateStatus(newStatus: String): void&lt;/strong&gt;&lt;/p&gt;&lt;ul&gt;&lt;li&gt;&lt;strong&gt;Description:&lt;/strong&gt; Updates the status of the service agreement.&lt;/li&gt;&lt;li&gt;&lt;strong&gt;Usage:&lt;/strong&gt; Used to reflect changes in the agreement&#39;s state, such as activation or termination.&lt;/li&gt;&lt;/ul&gt;&lt;/li&gt;&lt;li&gt;&lt;p&gt;&lt;strong&gt;captureAgreement(details: String): void&lt;/strong&gt;&lt;/p&gt;&lt;ul&gt;&lt;li&gt;&lt;strong&gt;Description:&lt;/strong&gt; Records the details of the service agreement.&lt;/li&gt;&lt;li&gt;&lt;strong&gt;Usage:&lt;/strong&gt; Stores the agreement&#39;s content when a new agreement is created or modified.&lt;/li&gt;&lt;/ul&gt;&lt;/li&gt;&lt;/ul&gt;&lt;/div&gt;" style="text;html=1;whiteSpace=wrap;overflow=hidden;rounded=0;" vertex="1" parent="WIyWlLk6GJQsqaUBKTNV-1">
          <mxGeometry x="-520" y="840" width="600" height="660" as="geometry" />
        </mxCell>
        <mxCell id="dlhCBF4bfs9_KUVGagDZ-79" value="&lt;h1 style=&quot;margin-top: 0px;&quot;&gt;Contract Class Description:&lt;/h1&gt;&lt;div&gt;&lt;p&gt;&lt;strong&gt;Attributes (Properties):&lt;/strong&gt;&lt;/p&gt;&lt;ul&gt;&lt;li&gt;&lt;p&gt;&lt;strong&gt;contractID: String&lt;/strong&gt;&lt;/p&gt;&lt;ul&gt;&lt;li&gt;&lt;strong&gt;Description:&lt;/strong&gt; A unique identifier for each contract.&lt;/li&gt;&lt;li&gt;&lt;strong&gt;Usage:&lt;/strong&gt; Used to uniquely identify and manage contracts within the system.&lt;/li&gt;&lt;/ul&gt;&lt;/li&gt;&lt;li&gt;&lt;p&gt;&lt;strong&gt;clientID: String&lt;/strong&gt;&lt;/p&gt;&lt;ul&gt;&lt;li&gt;&lt;strong&gt;Description:&lt;/strong&gt; References the &lt;code&gt;clientID&lt;/code&gt; from the &lt;strong&gt;Client&lt;/strong&gt; class.&lt;/li&gt;&lt;li&gt;&lt;strong&gt;Usage:&lt;/strong&gt; Links the contract to the specific client it pertains to.&lt;/li&gt;&lt;/ul&gt;&lt;/li&gt;&lt;li&gt;&lt;p&gt;&lt;strong&gt;serviceAgreementID: String&lt;/strong&gt;&lt;/p&gt;&lt;ul&gt;&lt;li&gt;&lt;strong&gt;Description:&lt;/strong&gt; References the &lt;code&gt;agreementID&lt;/code&gt; from the &lt;strong&gt;ServiceAgreement&lt;/strong&gt; class.&lt;/li&gt;&lt;li&gt;&lt;strong&gt;Usage:&lt;/strong&gt; Associates the contract with its corresponding service agreement.&lt;/li&gt;&lt;/ul&gt;&lt;/li&gt;&lt;li&gt;&lt;p&gt;&lt;strong&gt;status: String&lt;/strong&gt;&lt;/p&gt;&lt;ul&gt;&lt;li&gt;&lt;strong&gt;Description:&lt;/strong&gt; Indicates the current status of the contract (e.g., Draft, Signed, Executed).&lt;/li&gt;&lt;li&gt;&lt;strong&gt;Usage:&lt;/strong&gt; Monitors the progress and state of the contract lifecycle.&lt;/li&gt;&lt;/ul&gt;&lt;/li&gt;&lt;li&gt;&lt;p&gt;&lt;strong&gt;lastUpdated: Date&lt;/strong&gt;&lt;/p&gt;&lt;ul&gt;&lt;li&gt;&lt;strong&gt;Description:&lt;/strong&gt; Records the date when the contract was last modified.&lt;/li&gt;&lt;li&gt;&lt;strong&gt;Usage:&lt;/strong&gt; Helps in tracking changes and maintaining audit trails.&lt;/li&gt;&lt;/ul&gt;&lt;/li&gt;&lt;/ul&gt;&lt;p&gt;&lt;strong&gt;Methods (Operations):&lt;/strong&gt;&lt;/p&gt;&lt;ul&gt;&lt;li&gt;&lt;p&gt;&lt;strong&gt;trackStatus(newStatus: String): void&lt;/strong&gt;&lt;/p&gt;&lt;ul&gt;&lt;li&gt;&lt;strong&gt;Description:&lt;/strong&gt; Monitors and updates the contract&#39;s status.&lt;/li&gt;&lt;li&gt;&lt;strong&gt;Usage:&lt;/strong&gt; Ensures the contract&#39;s status reflects its current state in the lifecycle.&lt;/li&gt;&lt;/ul&gt;&lt;/li&gt;&lt;li&gt;&lt;p&gt;&lt;strong&gt;updateContract(details: String): void&lt;/strong&gt;&lt;/p&gt;&lt;ul&gt;&lt;li&gt;&lt;strong&gt;Description:&lt;/strong&gt; Modifies the contract&#39;s details.&lt;/li&gt;&lt;li&gt;&lt;strong&gt;Usage:&lt;/strong&gt; Allows for updates to contractual terms or conditions as needed.&lt;/li&gt;&lt;/ul&gt;&lt;/li&gt;&lt;/ul&gt;&lt;/div&gt;" style="text;html=1;whiteSpace=wrap;overflow=hidden;rounded=0;" vertex="1" parent="WIyWlLk6GJQsqaUBKTNV-1">
          <mxGeometry x="760" y="120" width="620" height="580" as="geometry" />
        </mxCell>
        <mxCell id="dlhCBF4bfs9_KUVGagDZ-80" value="&lt;h1 style=&quot;margin-top: 0px;&quot;&gt;CRMIntegration&amp;nbsp;Class Description:&lt;/h1&gt;&lt;div&gt;&lt;p&gt;&lt;strong&gt;Attributes (Properties):&lt;/strong&gt;&lt;/p&gt;&lt;ul&gt;&lt;li&gt;&lt;p&gt;&lt;strong&gt;integrationID: String&lt;/strong&gt;&lt;/p&gt;&lt;ul&gt;&lt;li&gt;&lt;strong&gt;Description:&lt;/strong&gt; A unique identifier for each CRM integration instance.&lt;/li&gt;&lt;li&gt;&lt;strong&gt;Usage:&lt;/strong&gt; Manages multiple integrations if necessary.&lt;/li&gt;&lt;/ul&gt;&lt;/li&gt;&lt;li&gt;&lt;p&gt;&lt;strong&gt;crmSystemName: String&lt;/strong&gt;&lt;/p&gt;&lt;ul&gt;&lt;li&gt;&lt;strong&gt;Description:&lt;/strong&gt; The name of the external CRM system being integrated (e.g., Salesforce, HubSpot).&lt;/li&gt;&lt;li&gt;&lt;strong&gt;Usage:&lt;/strong&gt; Identifies which CRM system is connected for data synchronization.&lt;/li&gt;&lt;/ul&gt;&lt;/li&gt;&lt;li&gt;&lt;p&gt;&lt;strong&gt;apiEndpoint: String&lt;/strong&gt;&lt;/p&gt;&lt;ul&gt;&lt;li&gt;&lt;strong&gt;Description:&lt;/strong&gt; The API endpoint URL used to communicate with the external CRM system.&lt;/li&gt;&lt;li&gt;&lt;strong&gt;Usage:&lt;/strong&gt; Facilitates data exchange between the Client Management system and the CRM.&lt;/li&gt;&lt;/ul&gt;&lt;/li&gt;&lt;/ul&gt;&lt;p&gt;&lt;strong&gt;Methods (Operations):&lt;/strong&gt;&lt;/p&gt;&lt;ul&gt;&lt;li&gt;&lt;p&gt;&lt;strong&gt;syncClientData(): void&lt;/strong&gt;&lt;/p&gt;&lt;ul&gt;&lt;li&gt;&lt;strong&gt;Description:&lt;/strong&gt; Synchronizes client data between the Client Management system and the external CRM.&lt;/li&gt;&lt;li&gt;&lt;strong&gt;Usage:&lt;/strong&gt; Ensures that client information is up-to-date across both systems, reducing data discrepancies.&lt;/li&gt;&lt;/ul&gt;&lt;/li&gt;&lt;li&gt;&lt;p&gt;&lt;strong&gt;fetchEnrichedProfiles(): void&lt;/strong&gt;&lt;/p&gt;&lt;ul&gt;&lt;li&gt;&lt;strong&gt;Description:&lt;/strong&gt; Retrieves additional client information from the CRM to enhance client profiles.&lt;/li&gt;&lt;li&gt;&lt;strong&gt;Usage:&lt;/strong&gt; Enriches the Client Management system with more comprehensive client data for better segmentation and engagement.&lt;/li&gt;&lt;/ul&gt;&lt;/li&gt;&lt;/ul&gt;&lt;/div&gt;" style="text;html=1;whiteSpace=wrap;overflow=hidden;rounded=0;" vertex="1" parent="WIyWlLk6GJQsqaUBKTNV-1">
          <mxGeometry x="760" y="700" width="620" height="480" as="geometry" />
        </mxCell>
        <mxCell id="dlhCBF4bfs9_KUVGagDZ-81" value="&lt;h1 style=&quot;margin-top: 0px;&quot;&gt;RealTimeUpdater Class Description:&lt;/h1&gt;&lt;div&gt;&lt;p&gt;&lt;strong&gt;Attributes (Properties):&lt;/strong&gt;&lt;/p&gt;&lt;ul&gt;&lt;li&gt;&lt;p&gt;&lt;strong&gt;updateID: String&lt;/strong&gt;&lt;/p&gt;&lt;ul&gt;&lt;li&gt;&lt;strong&gt;Description:&lt;/strong&gt; A unique identifier for each update instance.&lt;/li&gt;&lt;li&gt;&lt;strong&gt;Usage:&lt;/strong&gt; Tracks individual update events within the system.&lt;/li&gt;&lt;/ul&gt;&lt;/li&gt;&lt;li&gt;&lt;p&gt;&lt;strong&gt;timestamp: Date&lt;/strong&gt;&lt;/p&gt;&lt;ul&gt;&lt;li&gt;&lt;strong&gt;Description:&lt;/strong&gt; The exact time when the update occurred.&lt;/li&gt;&lt;li&gt;&lt;strong&gt;Usage:&lt;/strong&gt; Logs when updates are made for auditing and synchronization purposes.&lt;/li&gt;&lt;/ul&gt;&lt;/li&gt;&lt;/ul&gt;&lt;p&gt;&lt;strong&gt;Methods (Operations):&lt;/strong&gt;&lt;/p&gt;&lt;ul&gt;&lt;li&gt;&lt;p&gt;&lt;strong&gt;pushUpdate(updateData: Object): void&lt;/strong&gt;&lt;/p&gt;&lt;ul&gt;&lt;li&gt;&lt;strong&gt;Description:&lt;/strong&gt; Sends updates to relevant system components or external systems in real-time.&lt;/li&gt;&lt;li&gt;&lt;strong&gt;Usage:&lt;/strong&gt; Ensures that changes (e.g., new notes, status changes) are immediately reflected across the system.&lt;/li&gt;&lt;/ul&gt;&lt;/li&gt;&lt;li&gt;&lt;p&gt;&lt;strong&gt;receiveUpdate(updateData: Object): void&lt;/strong&gt;&lt;/p&gt;&lt;ul&gt;&lt;li&gt;&lt;strong&gt;Description:&lt;/strong&gt; Receives updates from external systems or other modules.&lt;/li&gt;&lt;li&gt;&lt;strong&gt;Usage:&lt;/strong&gt; Integrates incoming data to maintain consistency and accuracy within the Client Management system.&lt;/li&gt;&lt;/ul&gt;&lt;/li&gt;&lt;/ul&gt;&lt;/div&gt;" style="text;html=1;whiteSpace=wrap;overflow=hidden;rounded=0;" vertex="1" parent="WIyWlLk6GJQsqaUBKTNV-1">
          <mxGeometry x="120" y="1080" width="600" height="400" as="geometry" />
        </mxCell>
        <mxCell id="dlhCBF4bfs9_KUVGagDZ-82" value=" Database" style="swimlane;fontStyle=2;align=center;verticalAlign=top;childLayout=stackLayout;horizontal=1;startSize=26;horizontalStack=0;resizeParent=1;resizeLast=0;collapsible=1;marginBottom=0;rounded=0;shadow=0;strokeWidth=1;" vertex="1" parent="WIyWlLk6GJQsqaUBKTNV-1">
          <mxGeometry x="440" y="595" width="260" height="190" as="geometry">
            <mxRectangle x="230" y="140" width="160" height="26" as="alternateBounds" />
          </mxGeometry>
        </mxCell>
        <mxCell id="dlhCBF4bfs9_KUVGagDZ-83" value="- databaseID: String" style="text;align=left;verticalAlign=top;spacingLeft=4;spacingRight=4;overflow=hidden;rotatable=0;points=[[0,0.5],[1,0.5]];portConstraint=eastwest;" vertex="1" parent="dlhCBF4bfs9_KUVGagDZ-82">
          <mxGeometry y="26" width="260" height="26" as="geometry" />
        </mxCell>
        <mxCell id="dlhCBF4bfs9_KUVGagDZ-84" value="- connectionString: String " style="text;align=left;verticalAlign=top;spacingLeft=4;spacingRight=4;overflow=hidden;rotatable=0;points=[[0,0.5],[1,0.5]];portConstraint=eastwest;rounded=0;shadow=0;html=0;" vertex="1" parent="dlhCBF4bfs9_KUVGagDZ-82">
          <mxGeometry y="52" width="260" height="26" as="geometry" />
        </mxCell>
        <mxCell id="dlhCBF4bfs9_KUVGagDZ-88" value="- tables: List&lt;String&gt; " style="text;align=left;verticalAlign=top;spacingLeft=4;spacingRight=4;overflow=hidden;rotatable=0;points=[[0,0.5],[1,0.5]];portConstraint=eastwest;rounded=0;shadow=0;html=0;" vertex="1" parent="dlhCBF4bfs9_KUVGagDZ-82">
          <mxGeometry y="78" width="260" height="26" as="geometry" />
        </mxCell>
        <mxCell id="dlhCBF4bfs9_KUVGagDZ-85" value="" style="line;html=1;strokeWidth=1;align=left;verticalAlign=middle;spacingTop=-1;spacingLeft=3;spacingRight=3;rotatable=0;labelPosition=right;points=[];portConstraint=eastwest;" vertex="1" parent="dlhCBF4bfs9_KUVGagDZ-82">
          <mxGeometry y="104" width="260" height="8" as="geometry" />
        </mxCell>
        <mxCell id="dlhCBF4bfs9_KUVGagDZ-86" value="+ queryData(query: String): QueryResult" style="text;align=left;verticalAlign=top;spacingLeft=4;spacingRight=4;overflow=hidden;rotatable=0;points=[[0,0.5],[1,0.5]];portConstraint=eastwest;" vertex="1" parent="dlhCBF4bfs9_KUVGagDZ-82">
          <mxGeometry y="112" width="260" height="26" as="geometry" />
        </mxCell>
        <mxCell id="dlhCBF4bfs9_KUVGagDZ-89" value="+ updateData(query: String): boolean" style="text;align=left;verticalAlign=top;spacingLeft=4;spacingRight=4;overflow=hidden;rotatable=0;points=[[0,0.5],[1,0.5]];portConstraint=eastwest;" vertex="1" parent="dlhCBF4bfs9_KUVGagDZ-82">
          <mxGeometry y="138" width="260" height="26" as="geometry" />
        </mxCell>
        <mxCell id="dlhCBF4bfs9_KUVGagDZ-87" value="+ backupDatabase(): void" style="text;align=left;verticalAlign=top;spacingLeft=4;spacingRight=4;overflow=hidden;rotatable=0;points=[[0,0.5],[1,0.5]];portConstraint=eastwest;" vertex="1" parent="dlhCBF4bfs9_KUVGagDZ-82">
          <mxGeometry y="164" width="260" height="26" as="geometry" />
        </mxCell>
        <mxCell id="dlhCBF4bfs9_KUVGagDZ-90" value=" ClientManager " style="swimlane;fontStyle=2;align=center;verticalAlign=top;childLayout=stackLayout;horizontal=1;startSize=26;horizontalStack=0;resizeParent=1;resizeLast=0;collapsible=1;marginBottom=0;rounded=0;shadow=0;strokeWidth=1;" vertex="1" parent="WIyWlLk6GJQsqaUBKTNV-1">
          <mxGeometry x="150" y="800" width="300" height="268" as="geometry">
            <mxRectangle x="230" y="140" width="160" height="26" as="alternateBounds" />
          </mxGeometry>
        </mxCell>
        <mxCell id="dlhCBF4bfs9_KUVGagDZ-91" value="- managerID: String" style="text;align=left;verticalAlign=top;spacingLeft=4;spacingRight=4;overflow=hidden;rotatable=0;points=[[0,0.5],[1,0.5]];portConstraint=eastwest;" vertex="1" parent="dlhCBF4bfs9_KUVGagDZ-90">
          <mxGeometry y="26" width="300" height="26" as="geometry" />
        </mxCell>
        <mxCell id="dlhCBF4bfs9_KUVGagDZ-92" value="- name: String " style="text;align=left;verticalAlign=top;spacingLeft=4;spacingRight=4;overflow=hidden;rotatable=0;points=[[0,0.5],[1,0.5]];portConstraint=eastwest;rounded=0;shadow=0;html=0;" vertex="1" parent="dlhCBF4bfs9_KUVGagDZ-90">
          <mxGeometry y="52" width="300" height="26" as="geometry" />
        </mxCell>
        <mxCell id="dlhCBF4bfs9_KUVGagDZ-93" value="- email: String " style="text;align=left;verticalAlign=top;spacingLeft=4;spacingRight=4;overflow=hidden;rotatable=0;points=[[0,0.5],[1,0.5]];portConstraint=eastwest;rounded=0;shadow=0;html=0;" vertex="1" parent="dlhCBF4bfs9_KUVGagDZ-90">
          <mxGeometry y="78" width="300" height="26" as="geometry" />
        </mxCell>
        <mxCell id="dlhCBF4bfs9_KUVGagDZ-98" value="- role: String " style="text;align=left;verticalAlign=top;spacingLeft=4;spacingRight=4;overflow=hidden;rotatable=0;points=[[0,0.5],[1,0.5]];portConstraint=eastwest;rounded=0;shadow=0;html=0;" vertex="1" parent="dlhCBF4bfs9_KUVGagDZ-90">
          <mxGeometry y="104" width="300" height="26" as="geometry" />
        </mxCell>
        <mxCell id="dlhCBF4bfs9_KUVGagDZ-94" value="" style="line;html=1;strokeWidth=1;align=left;verticalAlign=middle;spacingTop=-1;spacingLeft=3;spacingRight=3;rotatable=0;labelPosition=right;points=[];portConstraint=eastwest;" vertex="1" parent="dlhCBF4bfs9_KUVGagDZ-90">
          <mxGeometry y="130" width="300" height="8" as="geometry" />
        </mxCell>
        <mxCell id="dlhCBF4bfs9_KUVGagDZ-95" value="+ login(credentials: Credentials): boolean" style="text;align=left;verticalAlign=top;spacingLeft=4;spacingRight=4;overflow=hidden;rotatable=0;points=[[0,0.5],[1,0.5]];portConstraint=eastwest;" vertex="1" parent="dlhCBF4bfs9_KUVGagDZ-90">
          <mxGeometry y="138" width="300" height="26" as="geometry" />
        </mxCell>
        <mxCell id="dlhCBF4bfs9_KUVGagDZ-96" value="+ manageClient(client: Client): void" style="text;align=left;verticalAlign=top;spacingLeft=4;spacingRight=4;overflow=hidden;rotatable=0;points=[[0,0.5],[1,0.5]];portConstraint=eastwest;" vertex="1" parent="dlhCBF4bfs9_KUVGagDZ-90">
          <mxGeometry y="164" width="300" height="26" as="geometry" />
        </mxCell>
        <mxCell id="dlhCBF4bfs9_KUVGagDZ-100" value="+ generateReport(reportType: String): Report" style="text;align=left;verticalAlign=top;spacingLeft=4;spacingRight=4;overflow=hidden;rotatable=0;points=[[0,0.5],[1,0.5]];portConstraint=eastwest;" vertex="1" parent="dlhCBF4bfs9_KUVGagDZ-90">
          <mxGeometry y="190" width="300" height="26" as="geometry" />
        </mxCell>
        <mxCell id="dlhCBF4bfs9_KUVGagDZ-99" value="+ configureIntegration(module: CRMIntegration): void" style="text;align=left;verticalAlign=top;spacingLeft=4;spacingRight=4;overflow=hidden;rotatable=0;points=[[0,0.5],[1,0.5]];portConstraint=eastwest;" vertex="1" parent="dlhCBF4bfs9_KUVGagDZ-90">
          <mxGeometry y="216" width="300" height="26" as="geometry" />
        </mxCell>
        <mxCell id="dlhCBF4bfs9_KUVGagDZ-97" value="+ scheduleFollowUp(client: Client): void" style="text;align=left;verticalAlign=top;spacingLeft=4;spacingRight=4;overflow=hidden;rotatable=0;points=[[0,0.5],[1,0.5]];portConstraint=eastwest;" vertex="1" parent="dlhCBF4bfs9_KUVGagDZ-90">
          <mxGeometry y="242" width="300" height="26" as="geometry" />
        </mxCell>
        <mxCell id="dlhCBF4bfs9_KUVGagDZ-101" value="&lt;h1 style=&quot;margin-top: 0px;&quot;&gt;Database Class Description:&lt;/h1&gt;&lt;div&gt;&lt;p&gt;&lt;strong&gt;Attributes (Properties):&lt;/strong&gt;&lt;/p&gt;&lt;ul&gt;&lt;li&gt;&lt;p&gt;&lt;strong&gt;databaseID: String&lt;/strong&gt;&lt;/p&gt;&lt;ul&gt;&lt;li&gt;&lt;strong&gt;Description:&lt;/strong&gt; A unique identifier for the database instance.&lt;/li&gt;&lt;li&gt;&lt;strong&gt;Usage:&lt;/strong&gt; Distinguishes between different databases if multiple are used within the system.&lt;/li&gt;&lt;/ul&gt;&lt;/li&gt;&lt;li&gt;&lt;p&gt;&lt;strong&gt;connectionString: String&lt;/strong&gt;&lt;/p&gt;&lt;ul&gt;&lt;li&gt;&lt;strong&gt;Description:&lt;/strong&gt; The string used to establish a connection to the database.&lt;/li&gt;&lt;li&gt;&lt;strong&gt;Usage:&lt;/strong&gt; Contains necessary details like server address, database name, and authentication credentials.&lt;/li&gt;&lt;/ul&gt;&lt;/li&gt;&lt;li&gt;&lt;p&gt;&lt;strong&gt;tables: List&amp;lt;String&amp;gt;&lt;/strong&gt;&lt;/p&gt;&lt;ul&gt;&lt;li&gt;&lt;strong&gt;Description:&lt;/strong&gt; A list of table names present in the database.&lt;/li&gt;&lt;li&gt;&lt;strong&gt;Usage:&lt;/strong&gt; Identifies the various tables that store different types of data (e.g., Clients, Contracts, ServiceAgreements).&lt;/li&gt;&lt;/ul&gt;&lt;/li&gt;&lt;/ul&gt;&lt;p&gt;&lt;strong&gt;Methods (Operations):&lt;/strong&gt;&lt;/p&gt;&lt;ul&gt;&lt;li&gt;&lt;p&gt;&lt;strong&gt;queryData(query: String)&lt;/strong&gt;&lt;/p&gt;&lt;ul&gt;&lt;li&gt;&lt;strong&gt;Description:&lt;/strong&gt; Executes a data retrieval query against the database.&lt;/li&gt;&lt;li&gt;&lt;strong&gt;Usage:&lt;/strong&gt; Fetches specific data based on client requests or system needs.&lt;/li&gt;&lt;/ul&gt;&lt;/li&gt;&lt;li&gt;&lt;p&gt;&lt;strong&gt;updateData(query: String)&lt;/strong&gt;&lt;/p&gt;&lt;ul&gt;&lt;li&gt;&lt;strong&gt;Description:&lt;/strong&gt; Executes a data modification query to insert, update, or delete records.&lt;/li&gt;&lt;li&gt;&lt;strong&gt;Usage:&lt;/strong&gt; Alters data in response to system operations like updating client profiles or contract statuses.&lt;/li&gt;&lt;/ul&gt;&lt;/li&gt;&lt;li&gt;&lt;p&gt;&lt;strong&gt;backupDatabase()&lt;/strong&gt;&lt;/p&gt;&lt;ul&gt;&lt;li&gt;&lt;strong&gt;Description:&lt;/strong&gt; Creates a backup of the current state of the database.&lt;/li&gt;&lt;li&gt;&lt;strong&gt;Usage:&lt;/strong&gt; Ensures data integrity and facilitates recovery in case of data loss or corruption.&lt;/li&gt;&lt;/ul&gt;&lt;/li&gt;&lt;/ul&gt;&lt;/div&gt;" style="text;html=1;whiteSpace=wrap;overflow=hidden;rounded=0;" vertex="1" parent="WIyWlLk6GJQsqaUBKTNV-1">
          <mxGeometry x="150" y="1510" width="600" height="550" as="geometry" />
        </mxCell>
        <mxCell id="dlhCBF4bfs9_KUVGagDZ-102" value="&lt;h1 style=&quot;margin-top: 0px;&quot;&gt;ClientManager Class Description:&lt;/h1&gt;&lt;div&gt;&lt;p&gt;&lt;strong&gt;Attributes (Properties):&lt;/strong&gt;&lt;/p&gt;&lt;ul&gt;&lt;li&gt;&lt;p&gt;&lt;strong&gt;managerID: String&lt;/strong&gt;&lt;/p&gt;&lt;ul&gt;&lt;li&gt;&lt;strong&gt;Description:&lt;/strong&gt; A unique identifier for each Client Manager.&lt;/li&gt;&lt;li&gt;&lt;strong&gt;Usage:&lt;/strong&gt; Distinguishes between different managers within the system.&lt;/li&gt;&lt;/ul&gt;&lt;/li&gt;&lt;li&gt;&lt;p&gt;&lt;strong&gt;name: String&lt;/strong&gt;&lt;/p&gt;&lt;ul&gt;&lt;li&gt;&lt;strong&gt;Description:&lt;/strong&gt; The full name of the Client Manager.&lt;/li&gt;&lt;li&gt;&lt;strong&gt;Usage:&lt;/strong&gt; Identifies the manager in the system and communication materials.&lt;/li&gt;&lt;/ul&gt;&lt;/li&gt;&lt;li&gt;&lt;p&gt;&lt;strong&gt;email: String&lt;/strong&gt;&lt;/p&gt;&lt;ul&gt;&lt;li&gt;&lt;strong&gt;Description:&lt;/strong&gt; The email address of the Client Manager.&lt;/li&gt;&lt;li&gt;&lt;strong&gt;Usage:&lt;/strong&gt; Used for sending notifications, alerts, and for system login purposes.&lt;/li&gt;&lt;/ul&gt;&lt;/li&gt;&lt;li&gt;&lt;p&gt;&lt;strong&gt;role: String&lt;/strong&gt;&lt;/p&gt;&lt;ul&gt;&lt;li&gt;&lt;strong&gt;Description:&lt;/strong&gt; Defines the role or permissions level of the Client Manager (e.g., Admin, Standard).&lt;/li&gt;&lt;li&gt;&lt;strong&gt;Usage:&lt;/strong&gt; Determines access rights and capabilities within the system.&lt;/li&gt;&lt;/ul&gt;&lt;/li&gt;&lt;/ul&gt;&lt;p&gt;&lt;strong&gt;Methods (Operations):&lt;/strong&gt;&lt;/p&gt;&lt;ul&gt;&lt;li&gt;&lt;p&gt;&lt;strong&gt;login(credentials: Credentials)&lt;/strong&gt;&lt;/p&gt;&lt;ul&gt;&lt;li&gt;&lt;strong&gt;Description:&lt;/strong&gt; Authenticates the Client Manager into the system using provided credentials.&lt;/li&gt;&lt;li&gt;&lt;strong&gt;Usage:&lt;/strong&gt; Grants access to the system&#39;s functionalities based on authentication.&lt;/li&gt;&lt;/ul&gt;&lt;/li&gt;&lt;li&gt;&lt;p&gt;&lt;strong&gt;manageClient(client: Client)&lt;/strong&gt;&lt;/p&gt;&lt;ul&gt;&lt;li&gt;&lt;strong&gt;Description:&lt;/strong&gt; Handles operations related to managing a client&#39;s data, such as creating, updating, or deleting client profiles.&lt;/li&gt;&lt;li&gt;&lt;strong&gt;Usage:&lt;/strong&gt; Allows Client Managers to maintain accurate and up-to-date client information.&lt;/li&gt;&lt;/ul&gt;&lt;/li&gt;&lt;li&gt;&lt;p&gt;&lt;strong&gt;generateReport(reportType: String)&lt;/strong&gt;&lt;/p&gt;&lt;ul&gt;&lt;li&gt;&lt;strong&gt;Description:&lt;/strong&gt; Creates reports based on specified criteria and data.&lt;/li&gt;&lt;li&gt;&lt;strong&gt;Usage:&lt;/strong&gt; Facilitates the analysis of client data, service agreements, and contract statuses for strategic planning.&lt;/li&gt;&lt;/ul&gt;&lt;/li&gt;&lt;li&gt;&lt;p&gt;&lt;strong&gt;configureIntegration(module: CRMIntegration)&lt;/strong&gt;&lt;/p&gt;&lt;ul&gt;&lt;li&gt;&lt;strong&gt;Description:&lt;/strong&gt; Sets up or modifies CRM integrations within the system.&lt;/li&gt;&lt;li&gt;&lt;strong&gt;Usage:&lt;/strong&gt; Enables the connection and synchronization with external CRM systems to enhance client profiles.&lt;/li&gt;&lt;/ul&gt;&lt;/li&gt;&lt;li&gt;&lt;p&gt;&lt;strong&gt;scheduleFollowUp(client: Client)&lt;/strong&gt;&lt;/p&gt;&lt;ul&gt;&lt;li&gt;&lt;strong&gt;Description:&lt;/strong&gt; Plans and schedules follow-up actions for specified clients.&lt;/li&gt;&lt;li&gt;&lt;strong&gt;Usage:&lt;/strong&gt; Ensures timely engagement with key clients, enhancing client relationships and satisfaction.&lt;/li&gt;&lt;/ul&gt;&lt;/li&gt;&lt;/ul&gt;&lt;/div&gt;" style="text;html=1;whiteSpace=wrap;overflow=hidden;rounded=0;" vertex="1" parent="WIyWlLk6GJQsqaUBKTNV-1">
          <mxGeometry x="750" y="1180" width="600" height="760" as="geometry" />
        </mxCell>
      </root>
    </mxGraphModel>
  </diagram>
</mxfile>
